<mxfile host="app.diagrams.net" modified="2023-12-19T02:42:43.634Z" agent="Mozilla/5.0 (Windows NT 10.0; Win64; x64) AppleWebKit/537.36 (KHTML, like Gecko) Chrome/120.0.0.0 Safari/537.36 Edg/120.0.0.0" etag="wmaNXDHOMCVxwFk1yANm" version="22.1.11" type="github">
  <diagram name="第 1 页" id="k98JuiUB70Ecf1WzHopS">
    <mxGraphModel dx="3310" dy="2008" grid="1" gridSize="10" guides="1" tooltips="1" connect="1" arrows="1" fold="1" page="1" pageScale="1" pageWidth="827" pageHeight="1169" math="0" shadow="0">
      <root>
        <mxCell id="0" />
        <mxCell id="1" parent="0" />
        <mxCell id="Fphpmedxy32AyZcysFOV-1" value="新开店流程" style="swimlane;childLayout=stackLayout;resizeParent=1;resizeParentMax=0;startSize=20;html=1;" parent="1" vertex="1">
          <mxGeometry x="70" y="10" width="2360" height="1290" as="geometry" />
        </mxCell>
        <mxCell id="Fphpmedxy32AyZcysFOV-2" value="市场部" style="swimlane;startSize=20;html=1;" parent="Fphpmedxy32AyZcysFOV-1" vertex="1">
          <mxGeometry y="20" width="620" height="1270" as="geometry" />
        </mxCell>
        <mxCell id="Fphpmedxy32AyZcysFOV-20" value="" style="edgeStyle=orthogonalEdgeStyle;rounded=0;orthogonalLoop=1;jettySize=auto;html=1;exitX=1;exitY=0.5;exitDx=0;exitDy=0;exitPerimeter=0;" parent="Fphpmedxy32AyZcysFOV-2" source="Fphpmedxy32AyZcysFOV-10" target="Fphpmedxy32AyZcysFOV-21" edge="1">
          <mxGeometry relative="1" as="geometry">
            <mxPoint x="89.99999999999955" y="211" as="targetPoint" />
          </mxGeometry>
        </mxCell>
        <mxCell id="Fphpmedxy32AyZcysFOV-10" value="开始" style="strokeWidth=2;html=1;shape=mxgraph.flowchart.terminator;whiteSpace=wrap;fillColor=#f5f5f5;fontColor=#333333;strokeColor=#666666;" parent="Fphpmedxy32AyZcysFOV-2" vertex="1">
          <mxGeometry x="39.999999999999545" y="111" width="100" height="60" as="geometry" />
        </mxCell>
        <mxCell id="Fphpmedxy32AyZcysFOV-23" value="" style="edgeStyle=orthogonalEdgeStyle;rounded=0;orthogonalLoop=1;jettySize=auto;html=1;exitX=1;exitY=0.5;exitDx=0;exitDy=0;entryX=0;entryY=0.5;entryDx=0;entryDy=0;" parent="Fphpmedxy32AyZcysFOV-2" source="Fphpmedxy32AyZcysFOV-21" target="Fphpmedxy32AyZcysFOV-24" edge="1">
          <mxGeometry relative="1" as="geometry">
            <mxPoint x="89.99999999999955" y="381" as="targetPoint" />
          </mxGeometry>
        </mxCell>
        <mxCell id="Fphpmedxy32AyZcysFOV-21" value="开店类型" style="rhombus;whiteSpace=wrap;html=1;fillColor=#f5f5f5;fontColor=#333333;strokeColor=#666666;" parent="Fphpmedxy32AyZcysFOV-2" vertex="1">
          <mxGeometry x="189.99999999999955" y="101" width="80" height="80" as="geometry" />
        </mxCell>
        <mxCell id="Fphpmedxy32AyZcysFOV-26" value="" style="edgeStyle=orthogonalEdgeStyle;rounded=0;orthogonalLoop=1;jettySize=auto;html=1;" parent="Fphpmedxy32AyZcysFOV-2" source="Fphpmedxy32AyZcysFOV-24" target="Fphpmedxy32AyZcysFOV-25" edge="1">
          <mxGeometry relative="1" as="geometry" />
        </mxCell>
        <mxCell id="Fphpmedxy32AyZcysFOV-24" value="项目节奏" style="rhombus;whiteSpace=wrap;html=1;fillColor=#f5f5f5;fontColor=#333333;strokeColor=#666666;" parent="Fphpmedxy32AyZcysFOV-2" vertex="1">
          <mxGeometry x="333.99999999999955" y="101" width="80" height="80" as="geometry" />
        </mxCell>
        <mxCell id="Fphpmedxy32AyZcysFOV-25" value="门店/投资/协议&lt;br&gt;信息提交" style="whiteSpace=wrap;html=1;" parent="Fphpmedxy32AyZcysFOV-2" vertex="1">
          <mxGeometry x="459.99999999999955" y="111" width="120" height="60" as="geometry" />
        </mxCell>
        <mxCell id="Fphpmedxy32AyZcysFOV-31" value="新开店" style="text;html=1;align=center;verticalAlign=middle;resizable=0;points=[];autosize=1;strokeColor=none;fillColor=none;" parent="Fphpmedxy32AyZcysFOV-2" vertex="1">
          <mxGeometry x="269.99999999999955" y="111" width="60" height="30" as="geometry" />
        </mxCell>
        <mxCell id="Fphpmedxy32AyZcysFOV-32" value="特殊立项" style="text;html=1;align=center;verticalAlign=middle;resizable=0;points=[];autosize=1;strokeColor=none;fillColor=none;" parent="Fphpmedxy32AyZcysFOV-2" vertex="1">
          <mxGeometry x="378.99999999999955" y="40" width="70" height="30" as="geometry" />
        </mxCell>
        <mxCell id="Fphpmedxy32AyZcysFOV-44" value="先投资款&lt;br&gt;到账" style="text;html=1;align=center;verticalAlign=middle;resizable=0;points=[];autosize=1;strokeColor=none;fillColor=none;" parent="Fphpmedxy32AyZcysFOV-2" vertex="1">
          <mxGeometry x="399.99999999999955" y="146" width="70" height="40" as="geometry" />
        </mxCell>
        <mxCell id="Fphpmedxy32AyZcysFOV-154" value="" style="endArrow=none;html=1;rounded=0;strokeColor=#CCCCCC;" parent="Fphpmedxy32AyZcysFOV-2" edge="1">
          <mxGeometry width="50" height="50" relative="1" as="geometry">
            <mxPoint y="590" as="sourcePoint" />
            <mxPoint x="2360" y="590" as="targetPoint" />
          </mxGeometry>
        </mxCell>
        <mxCell id="Fphpmedxy32AyZcysFOV-3" value="财务部" style="swimlane;startSize=20;html=1;" parent="Fphpmedxy32AyZcysFOV-1" vertex="1">
          <mxGeometry x="620" y="20" width="190" height="1270" as="geometry" />
        </mxCell>
        <mxCell id="sApj4p762pjHPcT1yokk-6" value="" style="edgeStyle=orthogonalEdgeStyle;rounded=0;orthogonalLoop=1;jettySize=auto;html=1;entryX=0.5;entryY=0;entryDx=0;entryDy=0;dashed=1;dashPattern=8 8;" edge="1" parent="Fphpmedxy32AyZcysFOV-3" source="Fphpmedxy32AyZcysFOV-29" target="Fphpmedxy32AyZcysFOV-73">
          <mxGeometry relative="1" as="geometry">
            <mxPoint x="94.99999999999955" y="361" as="targetPoint" />
          </mxGeometry>
        </mxCell>
        <mxCell id="Fphpmedxy32AyZcysFOV-29" value="确定投资款到账" style="whiteSpace=wrap;html=1;" parent="Fphpmedxy32AyZcysFOV-3" vertex="1">
          <mxGeometry x="34.999999999999545" y="221" width="120" height="60" as="geometry" />
        </mxCell>
        <mxCell id="Fphpmedxy32AyZcysFOV-73" value="备用金打款" style="whiteSpace=wrap;html=1;" parent="Fphpmedxy32AyZcysFOV-3" vertex="1">
          <mxGeometry x="34.999999999999545" y="610" width="120" height="60" as="geometry" />
        </mxCell>
        <mxCell id="Fphpmedxy32AyZcysFOV-4" value="战略发展中心" style="swimlane;startSize=20;html=1;" parent="Fphpmedxy32AyZcysFOV-1" vertex="1">
          <mxGeometry x="810" y="20" width="180" height="1270" as="geometry" />
        </mxCell>
        <mxCell id="Fphpmedxy32AyZcysFOV-41" value="开店申请" style="rhombus;whiteSpace=wrap;html=1;fillColor=#f5f5f5;fontColor=#333333;strokeColor=#666666;" parent="Fphpmedxy32AyZcysFOV-4" vertex="1">
          <mxGeometry x="49.999999999999545" y="101" width="80" height="80" as="geometry" />
        </mxCell>
        <mxCell id="Fphpmedxy32AyZcysFOV-56" value="立项审批" style="rhombus;whiteSpace=wrap;html=1;fillColor=#f5f5f5;fontColor=#333333;strokeColor=#666666;" parent="Fphpmedxy32AyZcysFOV-4" vertex="1">
          <mxGeometry x="49.999999999999545" y="450" width="80" height="80" as="geometry" />
        </mxCell>
        <mxCell id="Fphpmedxy32AyZcysFOV-123" value="通过" style="text;html=1;align=center;verticalAlign=middle;resizable=0;points=[];autosize=1;strokeColor=none;fillColor=none;" parent="Fphpmedxy32AyZcysFOV-4" vertex="1">
          <mxGeometry x="65" y="525" width="50" height="30" as="geometry" />
        </mxCell>
        <mxCell id="Fphpmedxy32AyZcysFOV-5" value="销售部" style="swimlane;startSize=20;html=1;" parent="Fphpmedxy32AyZcysFOV-1" vertex="1">
          <mxGeometry x="990" y="20" width="380" height="1270" as="geometry" />
        </mxCell>
        <mxCell id="Fphpmedxy32AyZcysFOV-84" value="货物验收" style="whiteSpace=wrap;html=1;" parent="Fphpmedxy32AyZcysFOV-5" vertex="1">
          <mxGeometry x="190.99999999999955" y="1023" width="120" height="60" as="geometry" />
        </mxCell>
        <mxCell id="Fphpmedxy32AyZcysFOV-85" value="物资验收" style="whiteSpace=wrap;html=1;" parent="Fphpmedxy32AyZcysFOV-5" vertex="1">
          <mxGeometry x="190.99999999999955" y="1113" width="120" height="60" as="geometry" />
        </mxCell>
        <mxCell id="Fphpmedxy32AyZcysFOV-161" value="" style="edgeStyle=orthogonalEdgeStyle;rounded=0;orthogonalLoop=1;jettySize=auto;html=1;" parent="Fphpmedxy32AyZcysFOV-5" source="Fphpmedxy32AyZcysFOV-86" target="Fphpmedxy32AyZcysFOV-160" edge="1">
          <mxGeometry relative="1" as="geometry" />
        </mxCell>
        <mxCell id="Fphpmedxy32AyZcysFOV-86" value="交场验收" style="whiteSpace=wrap;html=1;" parent="Fphpmedxy32AyZcysFOV-5" vertex="1">
          <mxGeometry x="29.999999999999545" y="1023" width="120" height="60" as="geometry" />
        </mxCell>
        <mxCell id="Fphpmedxy32AyZcysFOV-113" value="" style="rounded=0;whiteSpace=wrap;html=1;" parent="Fphpmedxy32AyZcysFOV-5" vertex="1">
          <mxGeometry x="45" y="230" width="290" height="190" as="geometry" />
        </mxCell>
        <mxCell id="Fphpmedxy32AyZcysFOV-114" value="提报立项信息" style="text;html=1;align=center;verticalAlign=middle;resizable=0;points=[];autosize=1;strokeColor=none;fillColor=none;fontStyle=1" parent="Fphpmedxy32AyZcysFOV-5" vertex="1">
          <mxGeometry x="125" y="240" width="100" height="30" as="geometry" />
        </mxCell>
        <mxCell id="Fphpmedxy32AyZcysFOV-115" value="门店等级&lt;br&gt;员工配置等信息" style="rounded=1;whiteSpace=wrap;html=1;" parent="Fphpmedxy32AyZcysFOV-5" vertex="1">
          <mxGeometry x="59" y="275.5" width="120" height="60" as="geometry" />
        </mxCell>
        <mxCell id="Fphpmedxy32AyZcysFOV-116" value="相关责任人信息" style="rounded=1;whiteSpace=wrap;html=1;" parent="Fphpmedxy32AyZcysFOV-5" vertex="1">
          <mxGeometry x="59" y="345.5" width="120" height="60" as="geometry" />
        </mxCell>
        <mxCell id="Fphpmedxy32AyZcysFOV-117" value="项目倒排计划表" style="rounded=1;whiteSpace=wrap;html=1;" parent="Fphpmedxy32AyZcysFOV-5" vertex="1">
          <mxGeometry x="203" y="275.5" width="120" height="60" as="geometry" />
        </mxCell>
        <mxCell id="Fphpmedxy32AyZcysFOV-118" value="年度/月度指标分解表" style="rounded=1;whiteSpace=wrap;html=1;" parent="Fphpmedxy32AyZcysFOV-5" vertex="1">
          <mxGeometry x="203" y="345.5" width="120" height="60" as="geometry" />
        </mxCell>
        <mxCell id="Fphpmedxy32AyZcysFOV-133" value="" style="rounded=0;whiteSpace=wrap;html=1;" parent="Fphpmedxy32AyZcysFOV-5" vertex="1">
          <mxGeometry x="45" y="608" width="290" height="190" as="geometry" />
        </mxCell>
        <mxCell id="Fphpmedxy32AyZcysFOV-134" value="提报配套方案信息" style="text;html=1;align=center;verticalAlign=middle;resizable=0;points=[];autosize=1;strokeColor=none;fillColor=none;fontStyle=1" parent="Fphpmedxy32AyZcysFOV-5" vertex="1">
          <mxGeometry x="130" y="618" width="120" height="30" as="geometry" />
        </mxCell>
        <mxCell id="Fphpmedxy32AyZcysFOV-135" value="物资采购信息" style="rounded=1;whiteSpace=wrap;html=1;" parent="Fphpmedxy32AyZcysFOV-5" vertex="1">
          <mxGeometry x="202" y="718" width="120" height="60" as="geometry" />
        </mxCell>
        <mxCell id="Fphpmedxy32AyZcysFOV-136" value="账号配套信息" style="rounded=1;whiteSpace=wrap;html=1;" parent="Fphpmedxy32AyZcysFOV-5" vertex="1">
          <mxGeometry x="202" y="648" width="120" height="60" as="geometry" />
        </mxCell>
        <mxCell id="Fphpmedxy32AyZcysFOV-137" value="证件办理信息" style="rounded=1;whiteSpace=wrap;html=1;" parent="Fphpmedxy32AyZcysFOV-5" vertex="1">
          <mxGeometry x="58" y="718" width="120" height="60" as="geometry" />
        </mxCell>
        <mxCell id="Fphpmedxy32AyZcysFOV-138" value="人员培训信息" style="rounded=1;whiteSpace=wrap;html=1;" parent="Fphpmedxy32AyZcysFOV-5" vertex="1">
          <mxGeometry x="58" y="648" width="120" height="60" as="geometry" />
        </mxCell>
        <mxCell id="Fphpmedxy32AyZcysFOV-163" value="" style="edgeStyle=orthogonalEdgeStyle;rounded=0;orthogonalLoop=1;jettySize=auto;html=1;" parent="Fphpmedxy32AyZcysFOV-5" source="Fphpmedxy32AyZcysFOV-160" target="Fphpmedxy32AyZcysFOV-162" edge="1">
          <mxGeometry relative="1" as="geometry" />
        </mxCell>
        <mxCell id="Fphpmedxy32AyZcysFOV-160" value="开业评价" style="whiteSpace=wrap;html=1;" parent="Fphpmedxy32AyZcysFOV-5" vertex="1">
          <mxGeometry x="29.999999999999545" y="1120" width="120" height="60" as="geometry" />
        </mxCell>
        <mxCell id="Fphpmedxy32AyZcysFOV-162" value="结束" style="strokeWidth=2;html=1;shape=mxgraph.flowchart.terminator;whiteSpace=wrap;fillColor=#f5f5f5;fontColor=#333333;strokeColor=#666666;" parent="Fphpmedxy32AyZcysFOV-5" vertex="1">
          <mxGeometry x="40" y="1200" width="100" height="60" as="geometry" />
        </mxCell>
        <mxCell id="Fphpmedxy32AyZcysFOV-6" value="工程部" style="swimlane;startSize=20;html=1;" parent="Fphpmedxy32AyZcysFOV-1" vertex="1">
          <mxGeometry x="1370" y="20" width="350" height="1270" as="geometry" />
        </mxCell>
        <mxCell id="Fphpmedxy32AyZcysFOV-49" value="设计方案提报" style="whiteSpace=wrap;html=1;" parent="Fphpmedxy32AyZcysFOV-6" vertex="1">
          <mxGeometry x="34.999999999999545" y="290" width="120" height="60" as="geometry" />
        </mxCell>
        <mxCell id="Fphpmedxy32AyZcysFOV-148" value="" style="rounded=0;whiteSpace=wrap;html=1;" parent="Fphpmedxy32AyZcysFOV-6" vertex="1">
          <mxGeometry x="35" y="608" width="290" height="190" as="geometry" />
        </mxCell>
        <mxCell id="Fphpmedxy32AyZcysFOV-149" value="提报施工管理节点" style="text;html=1;align=center;verticalAlign=middle;resizable=0;points=[];autosize=1;strokeColor=none;fillColor=none;fontStyle=1" parent="Fphpmedxy32AyZcysFOV-6" vertex="1">
          <mxGeometry x="120" y="618" width="120" height="30" as="geometry" />
        </mxCell>
        <mxCell id="Fphpmedxy32AyZcysFOV-150" value="计划进场时间&lt;br&gt;&lt;br&gt;实际进场时间" style="rounded=1;whiteSpace=wrap;html=1;" parent="Fphpmedxy32AyZcysFOV-6" vertex="1">
          <mxGeometry x="55" y="658" width="120" height="60" as="geometry" />
        </mxCell>
        <mxCell id="Fphpmedxy32AyZcysFOV-151" value="装修计划完成时间&lt;br&gt;&lt;br&gt;装修实际完成时间" style="rounded=1;whiteSpace=wrap;html=1;" parent="Fphpmedxy32AyZcysFOV-6" vertex="1">
          <mxGeometry x="185" y="658" width="120" height="60" as="geometry" />
        </mxCell>
        <mxCell id="Fphpmedxy32AyZcysFOV-152" value="保洁计划完成时间&lt;br&gt;&lt;br&gt;保洁实际完成时间" style="rounded=1;whiteSpace=wrap;html=1;" parent="Fphpmedxy32AyZcysFOV-6" vertex="1">
          <mxGeometry x="55" y="728" width="120" height="60" as="geometry" />
        </mxCell>
        <mxCell id="Fphpmedxy32AyZcysFOV-153" value="计划交场时间&lt;br&gt;&lt;br&gt;实际交场时间" style="rounded=1;whiteSpace=wrap;html=1;" parent="Fphpmedxy32AyZcysFOV-6" vertex="1">
          <mxGeometry x="185" y="728" width="120" height="60" as="geometry" />
        </mxCell>
        <mxCell id="Fphpmedxy32AyZcysFOV-7" value="商品部" style="swimlane;startSize=20;html=1;" parent="Fphpmedxy32AyZcysFOV-1" vertex="1">
          <mxGeometry x="1720" y="20" width="129.99999999999955" height="1270" as="geometry" />
        </mxCell>
        <mxCell id="Fphpmedxy32AyZcysFOV-70" value="" style="edgeStyle=orthogonalEdgeStyle;rounded=0;orthogonalLoop=1;jettySize=auto;html=1;entryX=0.5;entryY=0;entryDx=0;entryDy=0;" parent="Fphpmedxy32AyZcysFOV-7" source="Fphpmedxy32AyZcysFOV-51" target="Fphpmedxy32AyZcysFOV-68" edge="1">
          <mxGeometry relative="1" as="geometry">
            <mxPoint x="64.99999999999955" y="430" as="targetPoint" />
          </mxGeometry>
        </mxCell>
        <mxCell id="Fphpmedxy32AyZcysFOV-51" value="商品区域划分" style="whiteSpace=wrap;html=1;" parent="Fphpmedxy32AyZcysFOV-7" vertex="1">
          <mxGeometry x="4.999999999999545" y="290" width="120" height="60" as="geometry" />
        </mxCell>
        <mxCell id="Fphpmedxy32AyZcysFOV-92" value="" style="edgeStyle=orthogonalEdgeStyle;rounded=0;orthogonalLoop=1;jettySize=auto;html=1;" parent="Fphpmedxy32AyZcysFOV-7" source="Fphpmedxy32AyZcysFOV-68" target="Fphpmedxy32AyZcysFOV-82" edge="1">
          <mxGeometry relative="1" as="geometry" />
        </mxCell>
        <mxCell id="Fphpmedxy32AyZcysFOV-68" value="商品采购计划" style="whiteSpace=wrap;html=1;" parent="Fphpmedxy32AyZcysFOV-7" vertex="1">
          <mxGeometry x="4.999999999999545" y="610" width="120" height="60" as="geometry" />
        </mxCell>
        <mxCell id="Fphpmedxy32AyZcysFOV-82" value="货物发出节点提报" style="whiteSpace=wrap;html=1;" parent="Fphpmedxy32AyZcysFOV-7" vertex="1">
          <mxGeometry x="4.999999999999545" y="738" width="120" height="60" as="geometry" />
        </mxCell>
        <mxCell id="Fphpmedxy32AyZcysFOV-8" value="人事部" style="swimlane;startSize=20;html=1;" parent="Fphpmedxy32AyZcysFOV-1" vertex="1">
          <mxGeometry x="1849.9999999999995" y="20" width="150.00000000000045" height="1270" as="geometry" />
        </mxCell>
        <mxCell id="Fphpmedxy32AyZcysFOV-89" value="" style="edgeStyle=orthogonalEdgeStyle;rounded=0;orthogonalLoop=1;jettySize=auto;html=1;exitX=0.5;exitY=1;exitDx=0;exitDy=0;" parent="Fphpmedxy32AyZcysFOV-8" source="Fphpmedxy32AyZcysFOV-79" target="Fphpmedxy32AyZcysFOV-80" edge="1">
          <mxGeometry relative="1" as="geometry">
            <mxPoint x="65.00000000000045" y="913" as="sourcePoint" />
          </mxGeometry>
        </mxCell>
        <mxCell id="Fphpmedxy32AyZcysFOV-79" value="确认采购" style="whiteSpace=wrap;html=1;" parent="Fphpmedxy32AyZcysFOV-8" vertex="1">
          <mxGeometry x="5" y="798" width="120" height="60" as="geometry" />
        </mxCell>
        <mxCell id="Fphpmedxy32AyZcysFOV-80" value="通知派送" style="whiteSpace=wrap;html=1;" parent="Fphpmedxy32AyZcysFOV-8" vertex="1">
          <mxGeometry x="5" y="973" width="120" height="60" as="geometry" />
        </mxCell>
        <mxCell id="Fphpmedxy32AyZcysFOV-9" value="信息部" style="swimlane;startSize=20;html=1;" parent="Fphpmedxy32AyZcysFOV-1" vertex="1">
          <mxGeometry x="2000" y="20" width="195" height="1270" as="geometry" />
        </mxCell>
        <mxCell id="Fphpmedxy32AyZcysFOV-76" value="配置账号/&lt;br&gt;E3胜券支付码" style="whiteSpace=wrap;html=1;" parent="Fphpmedxy32AyZcysFOV-9" vertex="1">
          <mxGeometry x="37.5" y="628" width="120" height="60" as="geometry" />
        </mxCell>
        <mxCell id="Fphpmedxy32AyZcysFOV-40" value="" style="edgeStyle=orthogonalEdgeStyle;rounded=0;orthogonalLoop=1;jettySize=auto;html=1;exitX=1;exitY=0.5;exitDx=0;exitDy=0;entryX=0;entryY=0.5;entryDx=0;entryDy=0;" parent="Fphpmedxy32AyZcysFOV-1" source="Fphpmedxy32AyZcysFOV-25" edge="1">
          <mxGeometry relative="1" as="geometry">
            <mxPoint x="859.9999999999995" y="161" as="targetPoint" />
          </mxGeometry>
        </mxCell>
        <mxCell id="Fphpmedxy32AyZcysFOV-43" value="" style="edgeStyle=orthogonalEdgeStyle;rounded=0;orthogonalLoop=1;jettySize=auto;html=1;entryX=0.5;entryY=0;entryDx=0;entryDy=0;dashed=1;dashPattern=8 8;" parent="Fphpmedxy32AyZcysFOV-1" source="Fphpmedxy32AyZcysFOV-24" edge="1">
          <mxGeometry relative="1" as="geometry">
            <mxPoint x="899.9999999999995" y="121" as="targetPoint" />
            <Array as="points">
              <mxPoint x="374" y="91" />
              <mxPoint x="900" y="91" />
            </Array>
          </mxGeometry>
        </mxCell>
        <mxCell id="Fphpmedxy32AyZcysFOV-46" value="" style="edgeStyle=orthogonalEdgeStyle;rounded=0;orthogonalLoop=1;jettySize=auto;html=1;entryX=1;entryY=0.5;entryDx=0;entryDy=0;exitX=0.5;exitY=1;exitDx=0;exitDy=0;" parent="Fphpmedxy32AyZcysFOV-1" source="Fphpmedxy32AyZcysFOV-41" target="Fphpmedxy32AyZcysFOV-29" edge="1">
          <mxGeometry relative="1" as="geometry">
            <mxPoint x="899.9999999999995" y="291" as="targetPoint" />
          </mxGeometry>
        </mxCell>
        <mxCell id="Fphpmedxy32AyZcysFOV-48" value="" style="edgeStyle=orthogonalEdgeStyle;rounded=0;orthogonalLoop=1;jettySize=auto;html=1;exitX=0.5;exitY=1;exitDx=0;exitDy=0;entryX=0;entryY=0.5;entryDx=0;entryDy=0;" parent="Fphpmedxy32AyZcysFOV-1" source="Fphpmedxy32AyZcysFOV-29" target="Fphpmedxy32AyZcysFOV-113" edge="1">
          <mxGeometry relative="1" as="geometry">
            <mxPoint x="1019.9999999999995" y="340" as="targetPoint" />
          </mxGeometry>
        </mxCell>
        <mxCell id="Fphpmedxy32AyZcysFOV-52" value="" style="edgeStyle=orthogonalEdgeStyle;rounded=0;orthogonalLoop=1;jettySize=auto;html=1;" parent="Fphpmedxy32AyZcysFOV-1" source="Fphpmedxy32AyZcysFOV-49" target="Fphpmedxy32AyZcysFOV-51" edge="1">
          <mxGeometry relative="1" as="geometry" />
        </mxCell>
        <mxCell id="Fphpmedxy32AyZcysFOV-58" value="" style="edgeStyle=orthogonalEdgeStyle;rounded=0;orthogonalLoop=1;jettySize=auto;html=1;entryX=0.5;entryY=0;entryDx=0;entryDy=0;exitX=0.5;exitY=1;exitDx=0;exitDy=0;" parent="Fphpmedxy32AyZcysFOV-1" source="Fphpmedxy32AyZcysFOV-113" target="Fphpmedxy32AyZcysFOV-56" edge="1">
          <mxGeometry relative="1" as="geometry">
            <mxPoint x="1079.9999999999995" y="370" as="sourcePoint" />
            <mxPoint x="1079.9999999999995" y="450" as="targetPoint" />
            <Array as="points">
              <mxPoint x="1180" y="450" />
              <mxPoint x="900" y="450" />
            </Array>
          </mxGeometry>
        </mxCell>
        <mxCell id="Fphpmedxy32AyZcysFOV-62" value="" style="edgeStyle=orthogonalEdgeStyle;rounded=0;orthogonalLoop=1;jettySize=auto;html=1;entryX=0.5;entryY=1;entryDx=0;entryDy=0;exitX=0.5;exitY=1;exitDx=0;exitDy=0;" parent="Fphpmedxy32AyZcysFOV-1" source="Fphpmedxy32AyZcysFOV-56" target="Fphpmedxy32AyZcysFOV-49" edge="1">
          <mxGeometry relative="1" as="geometry">
            <mxPoint x="899.9999999999991" y="580" as="targetPoint" />
            <Array as="points">
              <mxPoint x="900" y="590" />
              <mxPoint x="1465" y="590" />
            </Array>
          </mxGeometry>
        </mxCell>
        <mxCell id="Fphpmedxy32AyZcysFOV-64" value="" style="edgeStyle=orthogonalEdgeStyle;rounded=0;orthogonalLoop=1;jettySize=auto;html=1;exitX=0.5;exitY=1;exitDx=0;exitDy=0;entryX=0;entryY=0.5;entryDx=0;entryDy=0;" parent="Fphpmedxy32AyZcysFOV-1" source="Fphpmedxy32AyZcysFOV-56" target="Fphpmedxy32AyZcysFOV-133" edge="1">
          <mxGeometry relative="1" as="geometry">
            <mxPoint x="1009.9999999999995" y="640.0000000000002" as="targetPoint" />
          </mxGeometry>
        </mxCell>
        <mxCell id="Fphpmedxy32AyZcysFOV-67" value="" style="edgeStyle=orthogonalEdgeStyle;rounded=0;orthogonalLoop=1;jettySize=auto;html=1;exitX=0.5;exitY=1;exitDx=0;exitDy=0;entryX=0.5;entryY=0;entryDx=0;entryDy=0;" parent="Fphpmedxy32AyZcysFOV-1" source="Fphpmedxy32AyZcysFOV-56" target="Fphpmedxy32AyZcysFOV-148" edge="1">
          <mxGeometry relative="1" as="geometry">
            <mxPoint x="1404.9999999999995" y="848" as="targetPoint" />
          </mxGeometry>
        </mxCell>
        <mxCell id="Fphpmedxy32AyZcysFOV-75" value="" style="edgeStyle=orthogonalEdgeStyle;rounded=0;orthogonalLoop=1;jettySize=auto;html=1;entryX=0.5;entryY=0;entryDx=0;entryDy=0;exitX=0.5;exitY=1;exitDx=0;exitDy=0;" parent="Fphpmedxy32AyZcysFOV-1" source="Fphpmedxy32AyZcysFOV-56" target="Fphpmedxy32AyZcysFOV-73" edge="1">
          <mxGeometry relative="1" as="geometry">
            <mxPoint x="799.9999999999995" y="450" as="targetPoint" />
            <Array as="points">
              <mxPoint x="900" y="590" />
              <mxPoint x="715" y="590" />
            </Array>
          </mxGeometry>
        </mxCell>
        <mxCell id="Fphpmedxy32AyZcysFOV-77" value="" style="endArrow=classic;html=1;rounded=0;exitX=0.5;exitY=1;exitDx=0;exitDy=0;entryX=0.5;entryY=0;entryDx=0;entryDy=0;" parent="Fphpmedxy32AyZcysFOV-1" source="Fphpmedxy32AyZcysFOV-56" target="Fphpmedxy32AyZcysFOV-76" edge="1">
          <mxGeometry width="50" height="50" relative="1" as="geometry">
            <mxPoint x="699.9999999999991" y="510" as="sourcePoint" />
            <mxPoint x="1624.999999999999" y="570" as="targetPoint" />
            <Array as="points">
              <mxPoint x="900" y="590" />
              <mxPoint x="2098" y="590" />
            </Array>
          </mxGeometry>
        </mxCell>
        <mxCell id="Fphpmedxy32AyZcysFOV-88" value="" style="edgeStyle=orthogonalEdgeStyle;rounded=0;orthogonalLoop=1;jettySize=auto;html=1;entryX=1;entryY=0.5;entryDx=0;entryDy=0;exitX=0.5;exitY=1;exitDx=0;exitDy=0;" parent="Fphpmedxy32AyZcysFOV-1" source="Fphpmedxy32AyZcysFOV-81" target="Fphpmedxy32AyZcysFOV-85" edge="1">
          <mxGeometry relative="1" as="geometry">
            <mxPoint x="2029.9999999999995" y="1103" as="targetPoint" />
          </mxGeometry>
        </mxCell>
        <mxCell id="Fphpmedxy32AyZcysFOV-91" value="" style="edgeStyle=orthogonalEdgeStyle;rounded=0;orthogonalLoop=1;jettySize=auto;html=1;entryX=0;entryY=0.5;entryDx=0;entryDy=0;" parent="Fphpmedxy32AyZcysFOV-1" source="Fphpmedxy32AyZcysFOV-80" target="Fphpmedxy32AyZcysFOV-81" edge="1">
          <mxGeometry relative="1" as="geometry">
            <mxPoint x="1894.9999999999995" y="993" as="targetPoint" />
          </mxGeometry>
        </mxCell>
        <mxCell id="Fphpmedxy32AyZcysFOV-71" value="物流部" style="swimlane;startSize=20;html=1;" parent="Fphpmedxy32AyZcysFOV-1" vertex="1">
          <mxGeometry x="2195" y="20" width="165" height="1270" as="geometry" />
        </mxCell>
        <mxCell id="Fphpmedxy32AyZcysFOV-81" value="通知派送" style="whiteSpace=wrap;html=1;" parent="Fphpmedxy32AyZcysFOV-71" vertex="1">
          <mxGeometry x="20" y="973" width="120" height="60" as="geometry" />
        </mxCell>
        <mxCell id="Fphpmedxy32AyZcysFOV-155" value="" style="endArrow=none;html=1;rounded=0;strokeColor=#CCCCCC;" parent="Fphpmedxy32AyZcysFOV-71" edge="1">
          <mxGeometry width="50" height="50" relative="1" as="geometry">
            <mxPoint x="-2192" y="897" as="sourcePoint" />
            <mxPoint x="168" y="897" as="targetPoint" />
          </mxGeometry>
        </mxCell>
        <mxCell id="Fphpmedxy32AyZcysFOV-94" value="" style="edgeStyle=orthogonalEdgeStyle;rounded=0;orthogonalLoop=1;jettySize=auto;html=1;exitX=0.5;exitY=1;exitDx=0;exitDy=0;" parent="Fphpmedxy32AyZcysFOV-1" source="Fphpmedxy32AyZcysFOV-82" edge="1">
          <mxGeometry relative="1" as="geometry">
            <mxPoint x="1300" y="1073" as="targetPoint" />
            <Array as="points">
              <mxPoint x="1785" y="1073" />
            </Array>
          </mxGeometry>
        </mxCell>
        <mxCell id="Fphpmedxy32AyZcysFOV-140" value="" style="edgeStyle=orthogonalEdgeStyle;rounded=0;orthogonalLoop=1;jettySize=auto;html=1;exitX=0.5;exitY=1;exitDx=0;exitDy=0;entryX=0;entryY=0.5;entryDx=0;entryDy=0;" parent="Fphpmedxy32AyZcysFOV-1" source="Fphpmedxy32AyZcysFOV-135" target="Fphpmedxy32AyZcysFOV-79" edge="1">
          <mxGeometry relative="1" as="geometry">
            <mxPoint x="1252" y="798" as="sourcePoint" />
            <mxPoint x="1310" y="858" as="targetPoint" />
          </mxGeometry>
        </mxCell>
        <mxCell id="Fphpmedxy32AyZcysFOV-157" value="" style="edgeStyle=orthogonalEdgeStyle;rounded=0;orthogonalLoop=1;jettySize=auto;html=1;entryX=0.5;entryY=0;entryDx=0;entryDy=0;" parent="Fphpmedxy32AyZcysFOV-1" source="Fphpmedxy32AyZcysFOV-153" target="Fphpmedxy32AyZcysFOV-86" edge="1">
          <mxGeometry relative="1" as="geometry">
            <mxPoint x="1614.9999999999995" y="888" as="targetPoint" />
            <Array as="points">
              <mxPoint x="1615" y="990" />
              <mxPoint x="1080" y="990" />
            </Array>
          </mxGeometry>
        </mxCell>
        <mxCell id="sApj4p762pjHPcT1yokk-3" value="" style="endArrow=classic;html=1;rounded=0;exitX=1;exitY=0.5;exitDx=0;exitDy=0;entryX=0.5;entryY=0;entryDx=0;entryDy=0;dashed=1;dashPattern=8 8;" edge="1" parent="Fphpmedxy32AyZcysFOV-1" source="Fphpmedxy32AyZcysFOV-41" target="Fphpmedxy32AyZcysFOV-113">
          <mxGeometry width="50" height="50" relative="1" as="geometry">
            <mxPoint x="1030" y="180" as="sourcePoint" />
            <mxPoint x="1080" y="130" as="targetPoint" />
            <Array as="points">
              <mxPoint x="1180" y="161" />
            </Array>
          </mxGeometry>
        </mxCell>
        <mxCell id="sApj4p762pjHPcT1yokk-4" value="" style="endArrow=classic;html=1;rounded=0;exitX=-0.082;exitY=0.503;exitDx=0;exitDy=0;exitPerimeter=0;entryX=1;entryY=0.5;entryDx=0;entryDy=0;dashed=1;dashPattern=8 8;" edge="1" parent="Fphpmedxy32AyZcysFOV-1" source="Fphpmedxy32AyZcysFOV-56" target="Fphpmedxy32AyZcysFOV-29">
          <mxGeometry width="50" height="50" relative="1" as="geometry">
            <mxPoint x="710" y="470" as="sourcePoint" />
            <mxPoint x="760" y="420" as="targetPoint" />
            <Array as="points">
              <mxPoint x="830" y="510" />
              <mxPoint x="830" y="271" />
            </Array>
          </mxGeometry>
        </mxCell>
      </root>
    </mxGraphModel>
  </diagram>
</mxfile>
